<svg xmlns="http://www.w3.org/2000/svg" viewBox="0 0 64 64"><defs><linearGradient id="a" x1="2" x2="62" y1="32" y2="32" gradientUnits="userSpaceOnUse"><stop offset="0" stop-color="#aa076b"/><stop offset="1" stop-color="#62045f"/></linearGradient></defs><path fill="url(#a)" d="M40.9883,18H30.9922a1,1,0,1,1,0-2h9.9961a1,1,0,0,1,0,2ZM27.9941,17a1,1,0,0,0-1-1h-2a1,1,0,0,0,0,2h2A1,1,0,0,0,27.9941,17Zm13.9942,8a1,1,0,0,0-1-1H30.9922a1,1,0,1,0,0,2h9.9961A1,1,0,0,0,41.9883,25ZM27.9941,25a1,1,0,0,0-1-1h-2a1,1,0,0,0,0,2h2A1,1,0,0,0,27.9941,25Zm13.9942-4a1,1,0,0,0-1-1H34.99a1,1,0,0,0,0,2h5.9981A1,1,0,0,0,41.9883,21Zm-9.9961,0a1,1,0,0,0-1-1H24.9946a1,1,0,0,0,0,2h5.9976A1,1,0,0,0,31.9922,21ZM50.001,7H42.803a2.9943,2.9943,0,0,0-2.8147-2h-2.1a4.9981,4.9981,0,0,0-9.7949,0H25.9946a2.9948,2.9948,0,0,0-2.8152,2H16.0146a5.0049,5.0049,0,0,0-4.999,4.999V42.2676c0,.01.0056.0188.0059.0291a13.4744,13.4744,0,0,1-2.9507,4.3547,2.9591,2.9591,0,0,0-.856,2.9463A2.9909,2.9909,0,0,0,9.4473,51.751l1.5683.357v5.893A5.0045,5.0045,0,0,0,16.0146,63H50.001A5.0042,5.0042,0,0,0,55,58.001V11.999A5.0045,5.0045,0,0,0,50.001,7ZM24.9951,8a1.0009,1.0009,0,0,1,.9995-1h2.9986a1,1,0,0,0,1-1,2.9981,2.9981,0,1,1,5.9961,0,1,1,0,0,0,1,1h2.999a1.0007,1.0007,0,0,1,.999,1v3a1.0007,1.0007,0,0,1-.999,1H25.9946a1.0009,1.0009,0,0,1-.9995-1Zm-11.98,3.999A3.0022,3.0022,0,0,1,16.0146,9h6.98v2h-4.96A2.99,2.99,0,0,0,15.04,14.0083c.032,4.994-.194,14.4611-2.024,22.2108ZM9.1475,49.084a.946.946,0,0,1,.2778-.961C16.2,41.8906,17.104,24.0659,17.04,13.9951a.9778.9778,0,0,1,.2861-.7016A.993.993,0,0,1,18.0347,13h5.7406a2.9814,2.9814,0,0,0,2.2193,1H39.9883a2.98,2.98,0,0,0,2.2188-1h5.829a.9888.9888,0,0,1,.9857.9012.9294.9294,0,0,0-.02.0983v3.63c-.3835,14.6995-3.8086,31.6769-10.9434,37.43a2.9557,2.9557,0,0,1-2.5264.5791L9.8911,49.8018A.9842.9842,0,0,1,9.1475,49.084Zm7.8662,4.39L32.5024,57H18.0132a1.0005,1.0005,0,0,1-1-1Zm31.9883-17.48V54a3.0033,3.0033,0,0,1-3,3H38.746a4.9823,4.9823,0,0,0,.5685-.3838C43.9761,52.8577,47.1451,45.0366,49.002,35.9934ZM53,58.001A3.0029,3.0029,0,0,1,50.001,61H16.0146a3.0025,3.0025,0,0,1-2.999-2.999V52.5634l1.9981.4549V56a3.0032,3.0032,0,0,0,3,3H46.002a5.0059,5.0059,0,0,0,5-5V17.76c.0327-1.2817.046-2.5536.0351-3.8058A3,3,0,0,0,48.0361,11H42.9873V9H50.001A3.0025,3.0025,0,0,1,53,11.999ZM33.9909,6a1,1,0,1,1-1-1A1,1,0,0,1,33.9909,6ZM7.63,7.3577l2.0555-.8809a.5187.5187,0,0,0,0-.9536L7.63,4.6423A.519.519,0,0,1,7.3577,4.37L6.4768,2.3144a.5187.5187,0,0,0-.9536,0L4.6423,4.37a.519.519,0,0,1-.2724.2724l-2.0555.8809a.5187.5187,0,0,0,0,.9536L4.37,7.3577a.519.519,0,0,1,.2724.2724l.8809,2.0555a.5187.5187,0,0,0,.9536,0L7.3577,7.63A.519.519,0,0,1,7.63,7.3577Zm42.185-2.6789,1.0277-.44a.2594.2594,0,0,0,0-.4768l-1.0277-.44a.26.26,0,0,1-.1363-.1363l-.44-1.0277a.2594.2594,0,0,0-.4768,0l-.44,1.0277a.26.26,0,0,1-.1363.1363l-1.0277.44a.2594.2594,0,0,0,0,.4768l1.0277.44a.26.26,0,0,1,.1363.1363l.44,1.0277a.2594.2594,0,0,0,.4768,0l.44-1.0277A.26.26,0,0,1,49.8151,4.6788Zm-28,0,1.0277-.44a.2594.2594,0,0,0,0-.4768l-1.0277-.44a.26.26,0,0,1-.1363-.1363l-.44-1.0277a.2594.2594,0,0,0-.4768,0l-.44,1.0277a.26.26,0,0,1-.1363.1363l-1.0277.44a.2594.2594,0,0,0,0,.4768l1.0277.44a.26.26,0,0,1,.1363.1363l.44,1.0277a.2594.2594,0,0,0,.4768,0l.44-1.0277A.26.26,0,0,1,21.8151,4.6788ZM6.7026,23.0183l1.5416-.6607a.3891.3891,0,0,0,0-.7152l-1.5416-.6607a.3887.3887,0,0,1-.2043-.2043l-.6607-1.5416a.3891.3891,0,0,0-.7152,0l-.6606,1.5416a.3892.3892,0,0,1-.2044.2043l-1.5416.6607a.3891.3891,0,0,0,0,.7152l1.5416.6607a.3892.3892,0,0,1,.2044.2043l.6606,1.5416a.3891.3891,0,0,0,.7152,0l.6607-1.5416A.3887.3887,0,0,1,6.7026,23.0183Zm53.52-14,1.5416-.6607a.3891.3891,0,0,0,0-.7152l-1.5416-.6607a.3887.3887,0,0,1-.2043-.2043l-.6607-1.5416a.3891.3891,0,0,0-.7152,0l-.6607,1.5416a.3887.3887,0,0,1-.2043.2043l-1.5416.6607a.3891.3891,0,0,0,0,.7152l1.5416.6607a.3887.3887,0,0,1,.2043.2043l.6607,1.5416a.3891.3891,0,0,0,.7152,0l.6607-1.5416A.3887.3887,0,0,1,60.2226,9.0183ZM8.5,12A1.5,1.5,0,1,0,10,13.5,1.5,1.5,0,0,0,8.5,12Zm51,5A1.5,1.5,0,1,0,61,18.5,1.5,1.5,0,0,0,59.5,17Z" data-name="Layer 1"/></svg>