<svg xmlns="http://www.w3.org/2000/svg" xmlns:xlink="http://www.w3.org/1999/xlink" viewBox="0 0 32 32"><defs><linearGradient id="a" x1="3.852" x2="33.161" y1="16" y2="16" gradientUnits="userSpaceOnUse"><stop offset="0" stop-color="#e93e3a"/><stop offset=".354" stop-color="#ed683c"/><stop offset=".705" stop-color="#f3903f"/><stop offset="1" stop-color="#fdc70c"/></linearGradient><linearGradient id="b" x1="3.852" x2="33.161" y1="11" y2="11" xlink:href="#a"/><linearGradient id="c" x1="3.852" x2="33.161" y1="17" y2="17" xlink:href="#a"/><linearGradient id="d" x1="3.852" x2="33.161" y1="23" y2="23" xlink:href="#a"/></defs><path fill="url(#a)" d="M27.988,6.938a1,1,0,0,0-.052-.259c-.011-.032-.019-.062-.033-.093a1,1,0,0,0-.2-.293l-6-6a.97.97,0,0,0-.294-.2.874.874,0,0,0-.09-.033.989.989,0,0,0-.264-.052C21.039.01,21.02,0,21,0H7A3,3,0,0,0,4,3V29a3,3,0,0,0,3,3H25a3,3,0,0,0,3-3V7C28,6.979,27.989,6.96,27.988,6.938ZM24.586,6H22V3.414ZM25,30H7a1,1,0,0,1-1-1V3A1,1,0,0,1,7,2H20V6a2,2,0,0,0,2,2h4V29A1,1,0,0,1,25,30Z"/><path fill="url(#b)" d="M23,10H9a1,1,0,0,0,0,2H23a1,1,0,0,0,0-2Z"/><path fill="url(#c)" d="M23,16H9a1,1,0,0,0,0,2H23a1,1,0,0,0,0-2Z"/><path fill="url(#d)" d="M23,22H9a1,1,0,0,0,0,2H23a1,1,0,0,0,0-2Z"/></svg>